<?xml version="1.0" standalone="no"?>
<!DOCTYPE svg PUBLIC "-//W3C//DTD SVG 20010904//EN"
 "http://www.w3.org/TR/2001/REC-SVG-20010904/DTD/svg10.dtd">
<svg version="1.0" xmlns="http://www.w3.org/2000/svg"
 width="100.000000pt" height="100.000000pt" viewBox="0 0 100.000000 100.000000"
 preserveAspectRatio="xMidYMid meet">

<g transform="translate(0.000000,100.000000) scale(0.100000,-0.100000)"
fill="#000000" stroke="none">
<path d="M487 713 c-4 -3 -7 -21 -7 -39 0 -35 21 -54 59 -54 32 0 29 -56 -4
-82 -14 -11 -25 -28 -25 -38 0 -10 11 -27 25 -38 29 -23 34 -81 9 -106 -36
-36 -90 -7 -77 42 7 28 -40 88 -75 95 -15 3 -37 8 -48 12 -15 5 -27 1 -40 -13
-11 -11 -35 -29 -54 -39 -67 -38 -48 -84 34 -81 l51 1 -55 6 c-47 5 -55 9 -58
28 -2 17 6 26 35 39 21 10 44 26 51 36 16 21 35 23 51 4 6 -7 22 -11 36 -8 18
3 27 -1 32 -14 3 -11 12 -23 20 -27 15 -9 18 -43 4 -51 -5 -4 -32 -7 -59 -8
l-49 -3 10 -30 c24 -72 92 -111 179 -103 86 9 138 69 138 160 0 40 3 47 23 51
l22 4 -22 2 c-22 1 -23 5 -23 82 0 71 2 80 17 77 10 -2 22 -13 28 -24 8 -16
14 -19 26 -11 20 13 47 3 56 -20 4 -10 15 -24 25 -31 41 -30 15 -71 -46 -74
l-41 -1 38 -4 c41 -5 77 16 77 44 0 8 -17 35 -37 60 -28 34 -42 44 -60 40 -14
-2 -29 3 -39 14 -10 11 -23 19 -31 19 -8 0 -13 12 -13 33 0 18 -5 38 -12 45
-13 13 -159 17 -171 5z m161 -194 l2 -187 -25 -30 c-63 -75 -216 -52 -252 36
-15 36 -2 44 16 10 l11 -23 -6 23 c-4 19 -1 22 21 22 15 0 34 -9 44 -22 22
-26 79 -28 98 -2 9 13 13 59 13 155 l0 138 -37 3 c-27 2 -39 8 -41 21 -8 41 4
48 80 45 l73 -3 3 -186z m-88 -19 c0 -41 -7 -49 -28 -28 -21 21 -7 68 20 68 4
0 8 -18 8 -40z"/>
<path d="M511 673 c0 -11 3 -13 6 -5 3 7 25 12 58 12 33 0 55 -5 58 -12 3 -8
6 -6 6 5 1 14 -8 17 -64 17 -56 0 -65 -3 -64 -17z"/>
<path d="M633 570 c0 -36 2 -50 4 -32 2 17 2 47 0 65 -2 17 -4 3 -4 -33z"/>
<path d="M633 415 c0 -27 2 -38 4 -22 2 15 2 37 0 50 -2 12 -4 0 -4 -28z"/>
<path d="M620 347 c0 -15 -37 -51 -60 -60 -13 -5 -12 -6 1 -6 19 -1 69 46 69
65 0 8 -2 14 -5 14 -3 0 -5 -6 -5 -13z"/>
<path d="M493 273 c9 -2 25 -2 35 0 9 3 1 5 -18 5 -19 0 -27 -2 -17 -5z"/>
</g>
</svg>
